<svg width="16" height="16" fill="none" xmlns="http://www.w3.org/2000/svg"><g id="a/icon_like"><g id="Group Copy"><path id="Combined Shape" fill-rule="evenodd" clip-rule="evenodd" d="M8 9.093C7.18 10.255 5.908 11 4.48 11 2.006 11 0 8.761 0 6s2.006-5 4.48-5c1.428 0 2.7.745 3.52 1.907C8.82 1.745 10.092 1 11.52 1 13.994 1 16 3.239 16 6s-2.006 5-4.48 5c-1.428 0-2.7-.745-3.52-1.907z" fill="#FB5F8A"/><g id="Object"><mask id="mask0_0_359" style="mask-type:alpha" maskUnits="userSpaceOnUse" x="0" y="1" width="16" height="10"><path id="Combined Shape_2" fill-rule="evenodd" clip-rule="evenodd" d="M8 9.093C7.18 10.255 5.908 11 4.48 11 2.006 11 0 8.761 0 6s2.006-5 4.48-5c1.428 0 2.7.745 3.52 1.907C8.82 1.745 10.092 1 11.52 1 13.994 1 16 3.239 16 6s-2.006 5-4.48 5c-1.428 0-2.7-.745-3.52-1.907z" fill="#fff"/></mask><g mask="url(#mask0_0_359)"><g id="_/color_dark_gray"><path id="Color" fill="#FC719F" d="M0 1h16v16H0z"/><path id="Color Copy" fill="#ED5267" d="M0 1h16v16H0z"/></g></g></g><path id="Oval Copy" fill-rule="evenodd" clip-rule="evenodd" d="M8 15c2.761 0 8-5 8-9H0c0 4 5.239 9 8 9z" fill="#FB5F8A"/><mask id="mask1_0_359" style="mask-type:alpha" maskUnits="userSpaceOnUse" x="0" y="6" width="16" height="9"><path id="Oval Copy_2" fill-rule="evenodd" clip-rule="evenodd" d="M8 15c2.761 0 8-5 8-9H0c0 4 5.239 9 8 9z" fill="#fff"/></mask><g mask="url(#mask1_0_359)"><g id="_/color_dark_gray_2"><path id="Color_2" fill="#FC719F" d="M0 1h16v16H0z"/><path id="Color Copy_2" fill="#ED5267" d="M0 1h16v16H0z"/></g></g></g></g></svg>